<svg width="20" height="20" viewBox="0 0 20 20" fill="none" xmlns="http://www.w3.org/2000/svg">
<path d="M12.4999 0.833328H7.49992C6.39485 0.833328 5.33504 1.27232 4.55364 2.05372C3.77224 2.83512 3.33325 3.89493 3.33325 4.99999V16.6667C3.33443 17.1044 3.45051 17.5341 3.66987 17.9128C3.88923 18.2916 4.20419 18.6061 4.58325 18.825C4.96105 19.0506 5.39325 19.1687 5.83325 19.1667C6.26912 19.1657 6.69716 19.0508 7.07492 18.8333L9.99992 17.1667L12.9249 18.8333C13.3049 19.0507 13.7352 19.1646 14.173 19.1635C14.6108 19.1623 15.0405 19.0463 15.4194 18.8269C15.7982 18.6076 16.1128 18.2926 16.3317 17.9135C16.5505 17.5344 16.666 17.1044 16.6666 16.6667V4.99999C16.6666 4.45282 16.5588 3.911 16.3494 3.40548C16.14 2.89996 15.8331 2.44063 15.4462 2.05372C15.0593 1.66681 14.6 1.35989 14.0944 1.1505C13.5889 0.941102 13.0471 0.833328 12.4999 0.833328ZM14.9999 16.6667C14.999 16.8121 14.9601 16.9548 14.887 17.0805C14.8139 17.2062 14.7092 17.3106 14.5833 17.3833C14.4566 17.4565 14.3129 17.495 14.1666 17.495C14.0203 17.495 13.8766 17.4565 13.7499 17.3833L10.4166 15.475C10.2899 15.4019 10.1462 15.3633 9.99992 15.3633C9.85364 15.3633 9.70993 15.4019 9.58325 15.475L6.24992 17.3833C6.12324 17.4565 5.97953 17.495 5.83325 17.495C5.68697 17.495 5.54327 17.4565 5.41659 17.3833C5.29064 17.3106 5.18591 17.2062 5.11281 17.0805C5.03972 16.9548 5.0008 16.8121 4.99992 16.6667V4.99999C4.99992 4.33695 5.26331 3.70107 5.73215 3.23223C6.20099 2.76339 6.83688 2.49999 7.49992 2.49999H12.4999C13.163 2.49999 13.7988 2.76339 14.2677 3.23223C14.7365 3.70107 14.9999 4.33695 14.9999 4.99999V16.6667Z" fill="white" fill-opacity="0.54"/>
<path d="M12.4998 5.83333H7.49984C7.27882 5.83333 7.06686 5.92113 6.91058 6.07741C6.7543 6.23369 6.6665 6.44565 6.6665 6.66666C6.6665 6.88768 6.7543 7.09964 6.91058 7.25592C7.06686 7.4122 7.27882 7.49999 7.49984 7.49999H12.4998C12.7209 7.49999 12.9328 7.4122 13.0891 7.25592C13.2454 7.09964 13.3332 6.88768 13.3332 6.66666C13.3332 6.44565 13.2454 6.23369 13.0891 6.07741C12.9328 5.92113 12.7209 5.83333 12.4998 5.83333Z" fill="white" fill-opacity="0.54"/>
</svg>
