<svg width="16" height="16" viewBox="0 0 16 16" fill="none" xmlns="http://www.w3.org/2000/svg">
<path d="M12.4547 2.33638V1.63637C12.4547 1.4676 12.3877 1.30573 12.2683 1.18639C12.149 1.06705 11.9871 1 11.8183 1C11.6496 1 11.4877 1.06705 11.3683 1.18639C11.249 1.30573 11.182 1.4676 11.182 1.63637V2.27274H8.63647V1.63637C8.63647 1.4676 8.56942 1.30573 8.45008 1.18639C8.33074 1.06705 8.16887 1 8.00009 1C7.83132 1 7.66946 1.06705 7.55011 1.18639C7.43077 1.30573 7.36372 1.4676 7.36372 1.63637V2.27274H4.81823V1.63637C4.81823 1.4676 4.75119 1.30573 4.63184 1.18639C4.5125 1.06705 4.35064 1 4.18186 1C4.01308 1 3.85122 1.06705 3.73188 1.18639C3.61254 1.30573 3.54549 1.4676 3.54549 1.63637V2.33638C2.82679 2.48308 2.18086 2.8736 1.717 3.44182C1.25314 4.01005 0.99985 4.72109 1 5.45461V11.8183C1 12.2362 1.0823 12.6499 1.2422 13.036C1.40211 13.422 1.63648 13.7728 1.93195 14.0682C2.52866 14.665 3.33798 15.0002 4.18186 15.0002H11.8183C12.2362 15.0002 12.6499 14.9179 13.036 14.758C13.422 14.5981 13.7728 14.3637 14.0682 14.0682C14.3637 13.7728 14.5981 13.422 14.758 13.036C14.9179 12.6499 15.0002 12.2362 15.0002 11.8183V5.45461C15.0003 4.72109 14.7471 4.01005 14.2832 3.44182C13.8193 2.8736 13.1734 2.48308 12.4547 2.33638ZM13.7274 11.8183C13.7274 12.3247 13.5263 12.8102 13.1683 13.1683C12.8102 13.5263 12.3247 13.7274 11.8183 13.7274H4.18186C3.67553 13.7274 3.18994 13.5263 2.83191 13.1683C2.47388 12.8102 2.27274 12.3247 2.27274 11.8183V5.45461C2.27385 5.06073 2.39676 4.67683 2.62462 4.35555C2.85248 4.03427 3.17413 3.79133 3.54549 3.66004V4.18186C3.54549 4.35064 3.61254 4.5125 3.73188 4.63184C3.85122 4.75119 4.01308 4.81823 4.18186 4.81823C4.35064 4.81823 4.5125 4.75119 4.63184 4.63184C4.75119 4.5125 4.81823 4.35064 4.81823 4.18186V3.54549H7.36372V4.18186C7.36372 4.35064 7.43077 4.5125 7.55011 4.63184C7.66946 4.75119 7.83132 4.81823 8.00009 4.81823C8.16887 4.81823 8.33074 4.75119 8.45008 4.63184C8.56942 4.5125 8.63647 4.35064 8.63647 4.18186V3.54549H11.182V4.18186C11.182 4.35064 11.249 4.5125 11.3683 4.63184C11.4877 4.75119 11.6496 4.81823 11.8183 4.81823C11.9871 4.81823 12.149 4.75119 12.2683 4.63184C12.3877 4.5125 12.4547 4.35064 12.4547 4.18186V3.66004C12.8261 3.79133 13.1477 4.03427 13.3756 4.35555C13.6034 4.67683 13.7263 5.06073 13.7274 5.45461V11.8183Z" fill="white"/>
<path d="M5.1362 8.63638C5.66339 8.63638 6.09076 8.20901 6.09076 7.68182C6.09076 7.15463 5.66339 6.72726 5.1362 6.72726C4.60901 6.72726 4.18164 7.15463 4.18164 7.68182C4.18164 8.20901 4.60901 8.63638 5.1362 8.63638Z" fill="white"/>
<path d="M7.99997 8.63638C8.52716 8.63638 8.95453 8.20901 8.95453 7.68182C8.95453 7.15463 8.52716 6.72726 7.99997 6.72726C7.47278 6.72726 7.04541 7.15463 7.04541 7.68182C7.04541 8.20901 7.47278 8.63638 7.99997 8.63638Z" fill="white"/>
<path d="M10.8636 8.63638C11.3908 8.63638 11.8182 8.20901 11.8182 7.68182C11.8182 7.15463 11.3908 6.72726 10.8636 6.72726C10.3364 6.72726 9.90906 7.15463 9.90906 7.68182C9.90906 8.20901 10.3364 8.63638 10.8636 8.63638Z" fill="white"/>
<path d="M5.1362 11.8182C5.66339 11.8182 6.09076 11.3909 6.09076 10.8637C6.09076 10.3365 5.66339 9.90912 5.1362 9.90912C4.60901 9.90912 4.18164 10.3365 4.18164 10.8637C4.18164 11.3909 4.60901 11.8182 5.1362 11.8182Z" fill="white"/>
<path d="M7.99997 11.8182C8.52716 11.8182 8.95453 11.3909 8.95453 10.8637C8.95453 10.3365 8.52716 9.90912 7.99997 9.90912C7.47278 9.90912 7.04541 10.3365 7.04541 10.8637C7.04541 11.3909 7.47278 11.8182 7.99997 11.8182Z" fill="white"/>
<path d="M10.8636 11.8182C11.3908 11.8182 11.8182 11.3909 11.8182 10.8637C11.8182 10.3365 11.3908 9.90912 10.8636 9.90912C10.3364 9.90912 9.90906 10.3365 9.90906 10.8637C9.90906 11.3909 10.3364 11.8182 10.8636 11.8182Z" fill="white"/>
</svg>
