<svg width="24" height="24" viewBox="0 0 24 24" fill="none" xmlns="http://www.w3.org/2000/svg">
<path d="M23.0769 7H0.923077C0.418462 7 0 6.54667 0 6C0 5.45333 0.418462 5 0.923077 5H23.0769C23.5815 5 24 5.45333 24 6C24 6.54667 23.5815 7 23.0769 7Z" fill="white" fill-opacity="0.54"/>
<path d="M19.1111 13H4.88889C4.40296 13 4 12.5467 4 12C4 11.4533 4.40296 11 4.88889 11H19.1111C19.597 11 20 11.4533 20 12C20 12.5467 19.597 13 19.1111 13Z" fill="white" fill-opacity="0.54"/>
<path d="M14.1818 19H9.81818C9.37091 19 9 18.5467 9 18C9 17.4533 9.37091 17 9.81818 17H14.1818C14.6291 17 15 17.4533 15 18C15 18.5467 14.6291 19 14.1818 19Z" fill="white" fill-opacity="0.54"/>
</svg>
