<svg width="24" height="24" viewBox="0 0 24 24" fill="none" xmlns="http://www.w3.org/2000/svg">
<path d="M20.27 5.16742L15.27 1.83742C14.4494 1.29134 13.4857 1 12.5 1C11.5143 1 10.5506 1.29134 9.73 1.83742L4.73 5.16742C4.04449 5.62359 3.48226 6.242 3.09323 6.96772C2.7042 7.69344 2.50043 8.504 2.5 9.32742V17.9974C2.5 18.654 2.62933 19.3042 2.8806 19.9108C3.13188 20.5175 3.50017 21.0687 3.96447 21.533C4.90215 22.4706 6.17392 22.9974 7.5 22.9974H17.5C18.1566 22.9974 18.8068 22.8681 19.4134 22.6168C20.02 22.3655 20.5712 21.9972 21.0355 21.533C21.4998 21.0687 21.8681 20.5175 22.1194 19.9108C22.3707 19.3042 22.5 18.654 22.5 17.9974V9.32742C22.4996 8.504 22.2958 7.69344 21.9068 6.96772C21.5177 6.242 20.9555 5.62359 20.27 5.16742ZM15.5 16.9974H9.5C9.23478 16.9974 8.98043 16.8921 8.79289 16.7045C8.60536 16.517 8.5 16.2626 8.5 15.9974C8.5 15.7322 8.60536 15.4778 8.79289 15.2903C8.98043 15.1028 9.23478 14.9974 9.5 14.9974H15.5C15.7652 14.9974 16.0196 15.1028 16.2071 15.2903C16.3946 15.4778 16.5 15.7322 16.5 15.9974C16.5 16.2626 16.3946 16.517 16.2071 16.7045C16.0196 16.8921 15.7652 16.9974 15.5 16.9974Z" fill="white"/>
</svg>
