<svg width="16" height="16" viewBox="0 0 16 16" fill="none" xmlns="http://www.w3.org/2000/svg">
<path d="M7.99998 15.3333C7.38914 15.3337 6.79819 15.1163 6.33331 14.72C5.13998 13.7 2.31998 10.9333 1.99998 7.28667C1.85741 5.74989 2.30527 4.21647 3.25256 2.998C4.19985 1.77953 5.57549 0.967417 7.09998 0.726668C7.95488 0.596965 8.82771 0.653574 9.6587 0.892618C10.4897 1.13166 11.2592 1.54749 11.9145 2.11163C12.5698 2.67576 13.0954 3.37487 13.4554 4.16107C13.8153 4.94727 14.0011 5.80199 14 6.66667C14 10.5867 10.9733 13.6 9.67331 14.7067C9.20984 15.1113 8.61525 15.334 7.99998 15.3333ZM7.99998 2C7.77696 2.00049 7.55423 2.01608 7.33331 2.04667C6.12942 2.21299 5.0379 2.84241 4.2909 3.80106C3.54389 4.75972 3.20035 5.97197 3.33331 7.18C3.58665 10.3267 6.10665 12.7933 7.17998 13.7067C7.40593 13.8937 7.69003 13.996 7.98331 13.996C8.2766 13.996 8.5607 13.8937 8.78665 13.7067C9.99998 12.7067 12.6666 10.0333 12.6666 6.66667C12.6663 5.99753 12.522 5.3363 12.2437 4.72781C11.9653 4.11932 11.5593 3.57781 11.0533 3.14C10.2088 2.40009 9.12278 1.99462 7.99998 2ZM7.99998 9.33333C7.47256 9.33333 6.95699 9.17694 6.51846 8.88392C6.07993 8.5909 5.73813 8.17443 5.5363 7.68716C5.33447 7.19989 5.28166 6.66371 5.38455 6.14643C5.48745 5.62914 5.74142 5.15399 6.11436 4.78105C6.4873 4.40811 6.96246 4.15413 7.47974 4.05124C7.99702 3.94835 8.5332 4.00116 9.02047 4.20299C9.50774 4.40482 9.92421 4.74662 10.2172 5.18515C10.5102 5.62368 10.6666 6.13925 10.6666 6.66667C10.6666 7.37391 10.3857 8.05219 9.8856 8.55229C9.3855 9.05238 8.70722 9.33333 7.99998 9.33333ZM7.99998 5.33333C7.73627 5.33333 7.47849 5.41153 7.25922 5.55804C7.03995 5.70455 6.86906 5.91279 6.76814 6.15642C6.66722 6.40006 6.64082 6.66815 6.69227 6.92679C6.74371 7.18543 6.8707 7.42301 7.05717 7.60948C7.24364 7.79595 7.48122 7.92294 7.73986 7.97438C7.9985 8.02583 8.26659 7.99942 8.51022 7.89851C8.75386 7.79759 8.9621 7.62669 9.10861 7.40743C9.25511 7.18816 9.33331 6.93038 9.33331 6.66667C9.33331 6.31305 9.19284 5.97391 8.94279 5.72386C8.69274 5.47381 8.3536 5.33333 7.99998 5.33333Z" fill="white"/>
</svg>
