<svg width="22" height="27" viewBox="0 0 22 27" fill="none" xmlns="http://www.w3.org/2000/svg">
<path d="M1.00764 10.5993C1.00764 17.3215 7.06657 22.8804 9.74841 25.0117C10.1322 25.3168 10.3264 25.4711 10.6128 25.5493C10.8357 25.6103 11.1639 25.6103 11.3869 25.5493C11.6738 25.471 11.8666 25.3181 12.2519 25.012C14.9337 22.8807 20.9923 17.3221 20.9923 10.5999C20.9923 8.05593 19.9396 5.61589 18.0657 3.81705C16.1917 2.01821 13.6503 1.00764 11.0002 1.00764C8.35001 1.00764 5.80828 2.01837 3.93434 3.8172C2.06041 5.61604 1.00764 8.05532 1.00764 10.5993Z" stroke="white" stroke-opacity="0.54" stroke-width="2" stroke-linecap="round" stroke-linejoin="round"/>
<path d="M8.14507 9.32065C8.14507 10.851 9.42328 12.0916 11 12.0916C12.5768 12.0916 13.855 10.851 13.855 9.32065C13.855 7.79026 12.5768 6.54964 11 6.54964C9.42328 6.54964 8.14507 7.79026 8.14507 9.32065Z" stroke="white" stroke-opacity="0.54" stroke-width="2" stroke-linecap="round" stroke-linejoin="round"/>
</svg>
