<svg width="54" height="54" viewBox="0 0 54 54" fill="none" xmlns="http://www.w3.org/2000/svg">
<rect x="0.5" y="0.5" width="53" height="53" rx="26.5" stroke="white" stroke-opacity="0.2"/>
<path d="M30 16H24C22.6739 16 21.4021 16.5268 20.4645 17.4645C19.5268 18.4021 19 19.6739 19 21V35C19.0014 35.5252 19.1407 36.0409 19.4039 36.4954C19.6672 36.9499 20.0451 37.3274 20.5 37.59C20.9534 37.8607 21.472 38.0024 22 38C22.523 37.9988 23.0367 37.8609 23.49 37.6L27 35.6L30.51 37.6C30.9659 37.8609 31.4824 37.9975 32.0077 37.9962C32.533 37.9948 33.0487 37.8556 33.5033 37.5923C33.9579 37.3291 34.3354 36.9511 34.5981 36.4962C34.8607 36.0412 34.9993 35.5253 35 35V21C35 20.3434 34.8707 19.6932 34.6194 19.0866C34.3681 18.48 33.9998 17.9288 33.5355 17.4645C33.0712 17.0002 32.52 16.6319 31.9134 16.3806C31.3068 16.1293 30.6566 16 30 16ZM33 35C32.9989 35.1745 32.9522 35.3457 32.8645 35.4966C32.7768 35.6475 32.6511 35.7727 32.5 35.86C32.348 35.9478 32.1755 35.994 32 35.994C31.8245 35.994 31.652 35.9478 31.5 35.86L27.5 33.57C27.348 33.4822 27.1755 33.436 27 33.436C26.8245 33.436 26.652 33.4822 26.5 33.57L22.5 35.86C22.348 35.9478 22.1755 35.994 22 35.994C21.8245 35.994 21.652 35.9478 21.5 35.86C21.3489 35.7727 21.2232 35.6475 21.1355 35.4966C21.0478 35.3457 21.0011 35.1745 21 35V21C21 20.2044 21.3161 19.4413 21.8787 18.8787C22.4413 18.3161 23.2044 18 24 18H30C30.7956 18 31.5587 18.3161 32.1213 18.8787C32.6839 19.4413 33 20.2044 33 21V35Z" fill="white" fill-opacity="0.54"/>
<path d="M30 22H24C23.7348 22 23.4804 22.1054 23.2929 22.2929C23.1054 22.4804 23 22.7348 23 23C23 23.2652 23.1054 23.5196 23.2929 23.7071C23.4804 23.8946 23.7348 24 24 24H30C30.2652 24 30.5196 23.8946 30.7071 23.7071C30.8946 23.5196 31 23.2652 31 23C31 22.7348 30.8946 22.4804 30.7071 22.2929C30.5196 22.1054 30.2652 22 30 22Z" fill="white" fill-opacity="0.54"/>
</svg>
